<svg version="1.0" xmlns="http://www.w3.org/2000/svg" width="1706.667" height="1696" viewBox="0 0 1280 1272"><path d="M346 2c-19.5 1.5-27.3 2.6-46 6.4-12.4 2.6-27 6.2-32.5 8.1-32.4 11.1-39.7 14.1-59.5 24C120.4 84.3 54.1 159.9 21.5 253c-7.2 20.6-8.9 26.7-13.3 49s-5.3 28.6-6.7 49.8c-1.5 22.4-1.5 26.3 0 48.5 1.4 21 2.3 27.6 6.6 49.7 4.5 22.5 6.1 28.4 13.6 50 11.3 32.5 23.1 56.1 42.5 85 14.7 22 38.9 51 52.7 63.2 3.9 3.5 9.5 9.1 12.5 12.5 3 3.5 13.5 13.4 23.3 22 49.3 43.7 107.8 72.9 172.6 86.2 21.9 4.5 27.2 5.2 50.1 6.8 24.2 1.6 27 1.6 51 0 22.5-1.5 28.3-2.3 49.8-6.7 13.4-2.7 25.7-5.3 27.3-5.9 41.6-13.2 76.2-29.3 106-49.5 9.9-6.7 18.5-12.6 19.2-12.9.7-.5 2.3.9 4.2 3.6 2.5 3.7 4 4.8 8.8 6.3 5.6 1.8 6.7 2.8 35.3 32.9 122.8 129.1 311.7 330.2 450.4 479.4l46 49.3 8-.7c7.8-.6 8.5-.9 19.6-7.8 22.4-13.9 54.1-44.1 69.6-66.3 6.9-9.9 7.7-11.5 8.5-17.4.5-3.6.8-7.3.9-8.2 0-2.5-53-57.6-105.6-109.8-51.1-50.7-82.9-81.3-183.9-177-117.8-111.7-186.4-178.5-235-228.9-21.9-22.7-30.6-31.1-32.2-31.1-1.6 0-2.3-.6-2.3-2 0-2.5-4.3-9.5-6.7-10.8-1.5-.9-1-2.1 5-11 11.7-17.7 27.6-51.1 36.7-77.2 6.9-19.6 8.8-26.6 13-47.6 4.3-21.5 5.2-27.6 6.7-49.8 1.6-23.8 1.6-26.7 0-50.9-1.6-22.8-2.3-28.4-6.7-49.9-13-64.1-41.9-122.4-85.5-172.3-8.7-9.9-18.8-20.6-22.4-23.7-3.6-3.2-9.3-8.9-12.6-12.6-3.3-3.8-14.1-14.1-24.1-22.9-48.7-43-106.9-72.2-170.4-85.5-20.5-4.3-26.7-5.2-49-6.8-29.8-2.3-28.6-2.3-59 0zm102 24.9c30.8 4.1 58.7 11.2 86.8 21.9 16.3 6.2 9.2 4.4-12.9-3.2-17.6-6.1-25.9-8.3-46.4-12.4-22-4.5-27.9-5.3-49.5-6.7-22.6-1.5-26.3-1.5-49 0-20.6 1.4-28.2 2.4-47.5 6.1-12.6 2.5-24.1 4.7-25.5 5l-2.5.4 2.5-1c6.4-2.8 40.9-9.3 58-10.9 6.3-.6 13.1-1.3 15-1.5 9.6-1.1 57.2.4 71 2.3zm-16.5 10.6c59.5 4 121.1 25.6 173.5 60.8 33.8 22.7 51.1 39.9 74.2 74.2 27.2 40.2 44.6 81.6 54.6 130.5 4.4 21.6 5.2 27.4 6.7 48.8 1.5 22.4 1.5 26.1 0 48-1.4 20.4-2.3 27.2-6.6 48.9-4.3 21.6-6.1 28.3-12.8 47.5C694.9 570.8 646.4 634 581 678.5c-25.1 17-55 32.3-81 41.3-9.6 3.3-19.3 6.7-21.5 7.5-2.2.8-15.2 3.7-29 6.5-21.8 4.4-28 5.3-48.7 6.7-21.7 1.5-25.6 1.5-48 0-66.1-4.3-126.7-24.9-180.3-61.3-34.2-23.3-51.5-40.5-73.9-73.6C71.8 566 53 521.3 43.5 474.7c-4-19.6-4.9-26.2-6.4-48-1.7-24-1.7-26.4-.1-50.2 1.5-21.5 2.4-28.3 6.5-48.4C72.2 185.3 185 72.3 327.9 43.5c19.5-4 27.4-5.1 47-6.5 13-.9 26.5-1.5 30.1-1.3 3.6.2 15.5 1 26.5 1.8zM300 38.7c-5.3 2.1-38.9 13.6-40.5 14-1.1.2.7-.8 4-2.2 7.9-3.4 34.6-12.5 36.5-12.4 1.3 0 1.3.1 0 .6zm-49.1 17.7c-1 .9-31.3 15.7-30.4 14.8 1.2-1.2 28.6-15.1 29.9-15.2.5 0 .7.2.5.4zm311.7 5.4c-.5.4-8.6-3.6-8.6-4.3 0-.3 2 .5 4.5 1.7 2.4 1.2 4.3 2.3 4.1 2.6zM735 262.5c0 .5-.5.3-1-.5s-1-2-1-2.5c0-.6.5-.3 1 .5s1 1.9 1 2.5zm7.7 29.7c-.3.8-.6.5-.6-.6-.1-1.1.2-1.7.5-1.3.3.3.4 1.2.1 1.9zm3.1 14.3c-.1 2.7-2.6-7.3-2.6-10.5 0-1.4.6 0 1.3 3 .8 3 1.4 6.4 1.3 7.5zm.9 5.7c-.3.7-.5.2-.5-1.2s.2-1.9.5-1.3c.2.7.2 1.9 0 2.5zm5.2 44.2c.2 12.9-.6 8.2-1.2-6.9-.3-9-.2-11.7.3-7.5.4 3.6.8 10.1.9 14.4zm.8 14.3c-.3 1-.5.2-.5-1.7s.2-2.7.5-1.8c.2 1 .2 2.6 0 3.5zm0 15.5c-.2 1.3-.4.5-.4-1.7-.1-2.2.1-3.2.4-2.3.2 1 .2 2.8 0 4zm-1.1 16.5c-.4 7.6-1.1 15.4-1.6 17.3l-1 3.5.5-4c.2-2.2.7-10 1.1-17.3.4-7.2.9-13.2 1.2-13.2.3 0 .2 6.2-.2 13.7zm-6.6 49.5c-1.8 8.4-3.4 15.5-3.7 15.8-.6.6-.6.5 3.4-19.9 1.5-8 2.9-13.7 3.1-12.9.2.9-1.1 8.5-2.8 17zm-4.3 19c-.3.8-.6.5-.6-.6-.1-1.1.2-1.7.5-1.3.3.3.4 1.2.1 1.9zm-8.3 26.9c-2.5 7.3-5 14-5.5 14.9-.9 1.3-1 1.3-.6 0 1.5-5.3 10.1-29 10.4-28.7.2.2-1.7 6.4-4.3 13.8zm-18.9 45.1c-3.7 7.3-7.1 13.7-7.7 14.3-.5.5 2.3-5.6 6.3-13.7s7.5-14.5 7.7-14.3c.2.2-2.6 6.4-6.3 13.7zM691.3 582c-.9 1.7-2.8 4.3-4.1 5.8-1.3 1.5-.6.1 1.4-3.1 3.8-5.9 5.8-7.9 2.7-2.7z"/></svg>